<?xml version="1.0" standalone="no"?>
<!DOCTYPE svg PUBLIC "-//W3C//DTD SVG 20010904//EN"
 "http://www.w3.org/TR/2001/REC-SVG-20010904/DTD/svg10.dtd">
<svg version="1.0" xmlns="http://www.w3.org/2000/svg"
 width="364.000000pt" height="79.000000pt" viewBox="0 0 364.000000 79.000000"
 preserveAspectRatio="xMidYMid meet">

<g transform="translate(0.000000,79.000000) scale(0.100000,-0.100000)"
fill="#000000" stroke="none">
<path d="M290 749 c-106 -20 -205 -59 -223 -90 -11 -18 0 -89 13 -89 6 0 10 9
10 20 0 19 56 57 67 46 3 -3 -21 -124 -55 -268 -82 -351 -77 -323 -50 -342 25
-18 64 -21 73 -7 3 5 16 63 29 128 54 264 53 262 91 269 43 8 95 40 95 59 0
20 -9 19 -28 -5 -20 -24 -92 -45 -92 -26 1 6 11 58 23 116 l22 104 40 12 c46
14 115 18 115 6 0 -4 -5 -13 -11 -19 -6 -6 -9 -17 -7 -24 6 -19 68 69 68 96 0
40 -23 42 -180 14z"/>
<path d="M2275 750 c-117 -22 -163 -35 -203 -60 -40 -24 -46 -39 -38 -85 7
-37 26 -48 26 -15 0 19 56 57 68 46 3 -3 -17 -97 -43 -208 -67 -280 -84 -370
-74 -389 12 -25 65 -41 78 -25 6 7 20 57 31 112 11 54 30 141 41 191 21 91 22
93 54 99 43 8 95 40 95 59 0 20 -9 19 -28 -5 -20 -24 -92 -45 -92 -26 0 6 11
58 23 116 l23 105 39 12 c46 13 115 17 115 5 0 -4 -5 -13 -11 -19 -6 -6 -9
-17 -7 -24 6 -19 68 69 68 96 0 40 -25 42 -165 15z"/>
<path d="M986 685 c-36 -39 -71 -162 -101 -358 -28 -173 -29 -178 -63 -213
l-35 -36 -19 57 -19 56 36 34 c30 28 36 40 33 67 -3 29 -7 33 -34 36 -46 5
-71 -23 -108 -123 -44 -118 -73 -175 -91 -175 -23 0 -26 35 -11 132 15 94 12
113 -19 106 -11 -2 -25 -28 -41 -79 -13 -42 -32 -83 -43 -93 -18 -16 -20 -16
-36 0 -31 31 -6 151 43 207 14 16 17 16 39 2 24 -16 32 -8 11 13 -23 23 -78
14 -108 -18 -70 -75 -81 -256 -17 -268 24 -5 64 23 86 59 l18 30 5 -46 c6 -53
22 -75 52 -75 32 0 62 37 95 115 l29 68 18 -57 18 -57 -29 -23 c-16 -13 -25
-28 -21 -34 12 -19 25 -14 19 8 -4 14 0 20 10 20 10 0 13 -6 10 -21 -9 -35 39
-21 56 16 7 17 28 40 47 52 l34 22 0 -24 c0 -15 10 -31 26 -41 31 -21 31 -22
79 101 45 117 72 162 88 146 9 -9 6 -40 -12 -129 -14 -64 -26 -127 -29 -140
-4 -21 -1 -23 23 -20 27 3 30 8 51 93 27 109 30 177 8 199 -40 40 -94 2 -128
-90 -10 -27 -22 -52 -25 -57 -4 -4 4 64 17 150 24 153 26 159 62 203 71 85 90
159 52 193 -26 24 -49 21 -76 -8z m84 -42 c0 -16 -7 -41 -16 -58 -19 -37 -65
-98 -70 -93 -5 6 26 120 42 150 19 37 44 37 44 1z m-262 -352 c3 -22 -31 -71
-50 -71 -14 0 -9 55 8 78 19 27 38 24 42 -7z"/>
<path d="M1226 423 c-4 -9 0 -23 9 -32 15 -15 18 -14 31 3 8 11 14 26 14 33 0
19 -47 16 -54 -4z"/>
<path d="M2916 423 c-4 -9 0 -23 9 -32 15 -15 18 -14 31 3 8 11 14 26 14 33 0
19 -47 16 -54 -4z"/>
<path d="M1480 321 c0 -24 8 -48 21 -65 18 -23 20 -36 15 -73 -8 -61 -46 -128
-71 -128 -32 0 -32 76 0 171 25 74 25 79 9 91 -37 27 -51 16 -98 -80 -72 -147
-156 -230 -141 -139 11 65 36 196 41 215 4 12 0 17 -15 17 -33 0 -49 -26 -61
-102 -8 -44 -27 -103 -51 -150 -39 -81 -38 -109 2 -38 l23 41 13 -26 c8 -14
22 -25 33 -25 26 0 87 55 122 109 l28 45 0 -40 c0 -59 10 -83 39 -98 32 -17
74 -10 96 14 22 24 44 87 45 126 0 28 3 31 30 30 16 -1 30 -4 30 -7 0 -3 -5
-31 -11 -63 -12 -64 -1 -89 35 -84 14 2 33 28 63 88 24 47 52 94 63 105 20 19
20 19 20 -5 0 -14 -11 -60 -25 -103 -14 -43 -25 -93 -25 -112 0 -35 0 -35 44
-35 39 0 48 5 81 41 47 53 128 224 96 205 -6 -4 -11 -13 -11 -20 0 -48 -126
-233 -145 -214 -4 3 5 48 19 99 14 52 26 106 26 120 0 28 -27 59 -51 59 -23 0
-63 -48 -97 -115 -36 -70 -40 -53 -13 60 21 85 20 95 -8 95 -25 0 -38 -18 -46
-63 -7 -34 -11 -38 -33 -35 -22 3 -27 10 -37 53 -13 60 -21 75 -41 75 -10 0
-14 -12 -14 -39z m40 -29 c0 -47 -18 -30 -27 24 -6 36 -5 38 10 25 10 -8 17
-28 17 -49z"/>
<path d="M3170 328 c0 -18 9 -48 20 -66 24 -39 25 -73 4 -134 -18 -54 -46 -83
-70 -74 -22 9 -15 96 16 185 22 62 22 65 4 78 -38 28 -52 16 -98 -79 -42 -88
-106 -178 -127 -178 -15 0 -11 60 11 166 11 54 17 101 12 106 -5 5 -20 0 -34
-11 -20 -16 -28 -36 -38 -97 -11 -64 -18 -81 -48 -112 -32 -33 -36 -35 -39
-17 -3 11 -11 38 -19 59 -15 39 -15 40 16 64 59 47 60 112 1 112 -37 0 -74
-38 -90 -92 -26 -87 -103 -198 -137 -198 -18 0 -18 2 6 80 27 88 26 106 -6
114 -30 8 -57 -18 -48 -45 2 -9 -2 -43 -11 -75 -20 -76 -14 -94 31 -94 43 0
105 54 138 119 l23 44 17 -44 c11 -28 15 -61 12 -92 -4 -44 -2 -47 19 -47 18
0 27 9 36 33 6 17 27 42 45 54 l34 22 0 -24 c0 -24 23 -55 42 -55 25 0 72 39
106 89 l37 54 3 -34 c4 -54 22 -87 50 -97 63 -21 108 21 127 114 10 52 14 57
38 58 30 2 30 -1 18 -77 -5 -32 -4 -53 4 -63 22 -31 49 -11 90 68 22 43 50 90
62 105 l22 28 0 -26 c1 -14 -10 -63 -24 -109 -14 -46 -25 -96 -25 -112 0 -27
2 -28 46 -28 39 0 51 5 75 31 36 38 113 192 106 211 -3 9 -7 7 -12 -7 -23 -66
-79 -165 -109 -194 -20 -19 -38 -32 -41 -30 -2 3 7 47 21 98 32 117 30 162 -9
175 -23 9 -31 6 -52 -14 -13 -14 -40 -54 -60 -90 -40 -75 -42 -68 -15 50 19
87 16 105 -16 98 -13 -2 -24 -19 -33 -51 -13 -42 -18 -48 -40 -45 -22 3 -27
10 -34 53 -9 53 -21 75 -43 75 -9 0 -14 -12 -14 -32z m35 -3 c3 -14 7 -36 10
-50 3 -14 3 -25 0 -25 -9 0 -35 59 -35 80 0 28 19 25 25 -5z m-397 -38 c2 -19
-5 -34 -25 -53 l-28 -26 -3 32 c-4 35 22 84 41 77 7 -2 13 -16 15 -30z"/>
<path d="M2383 312 c-17 -11 -55 -175 -51 -219 7 -79 65 -66 130 26 40 57 53
97 15 47 -12 -17 -37 -46 -54 -65 l-32 -36 -1 30 c0 17 9 67 20 113 11 46 20
90 20 98 0 15 -27 19 -47 6z"/>
<path d="M2681 31 c-10 -18 -6 -31 11 -31 5 0 6 5 3 10 -4 6 -1 17 5 25 8 10
9 15 2 15 -6 0 -16 -8 -21 -19z"/>
</g>
</svg>
